<svg width="52" height="56" viewBox="0 0 52 56" fill="none" xmlns="http://www.w3.org/2000/svg">
<path d="M51.2847 42.2705H45.0646L39.2936 38.0547C38.7319 37.6467 37.9455 37.7649 37.5375 38.3266C37.1296 38.8884 37.2478 39.6748 37.8096 40.0827L40.7895 42.2705H38.8028C38.3771 42.2705 38.046 42.6607 38.1229 43.0805L39.9558 53.7353C40.015 54.0665 40.2988 54.3088 40.6358 54.3088H45.0408H49.505C49.842 54.3088 50.1318 54.0664 50.185 53.7294L51.9588 43.0746C52.0357 42.6548 51.7105 42.2705 51.2847 42.2705ZM44.9995 45.9955C44.4673 46.0782 43.9707 45.7117 43.8878 45.1796C43.8583 44.9726 43.8938 44.7716 43.9824 44.5942C44.1185 44.3222 44.3846 44.1153 44.7098 44.068C45.0705 44.0148 45.4193 44.1626 45.6263 44.4345C45.7267 44.5646 45.7977 44.7184 45.8214 44.8898C45.8983 45.4161 45.5376 45.9127 44.9995 45.9955Z" fill="white"/>
<path d="M19.3912 13.15C20.8162 13.15 22.3831 12.3577 22.3831 12.3577C21.644 11.9261 21.2656 11.0687 21.0823 10.2055C21.8569 11.4885 23.1991 12.3341 24.7186 12.3341C26.2382 12.3341 27.5804 11.4885 28.355 10.2055C28.1717 11.0746 27.7933 11.9261 27.0542 12.3577C27.0542 12.3577 28.6211 13.15 30.0461 13.15C30.9685 13.15 31.8377 12.8189 32.1806 11.7132C32.2339 11.5477 32.1629 11.3703 32.0092 11.2934C31.4948 11.0155 30.3654 10.2173 30.3654 8.57353C30.3654 6.44493 30.8976 0 24.7187 0C18.5398 0 19.072 6.44493 19.072 8.57353C19.072 10.2173 17.9427 11.0155 17.4282 11.2934C17.2745 11.3762 17.2036 11.5536 17.2568 11.7132C17.5997 12.813 18.4688 13.15 19.3912 13.15Z" fill="white"/>
<path d="M38.8857 32.1655C39.7903 31.4915 39.9795 30.2084 39.3055 29.3038L29.508 16.1301C27.4208 13.3511 23.2641 13.4753 20.6684 15.4088C20.6625 15.4147 12.5501 21.4516 12.5501 21.4516L7.64843 18.7376V23.4146L11.7223 25.6733C12.0298 25.8447 12.3727 25.9275 12.7157 25.9275C13.1473 25.9275 13.579 25.7915 13.9396 25.5255L18.5634 22.0842V27.1633L13.6676 40.8218C13.4962 41.2771 13.8391 41.7679 14.324 41.7679H18.5634V52.3458C18.5634 53.8654 19.7933 55.0953 21.3129 55.0953C22.8325 55.0953 24.0623 53.8654 24.0623 52.3458V41.756H25.3867V52.334C25.3867 53.8535 26.6166 55.0834 28.1362 55.0834C29.6558 55.0834 30.8856 53.8535 30.8856 52.334V41.756H35.1251C35.6158 41.756 35.9529 41.2712 35.7815 40.81L30.8856 27.1515V24.8159L36.0357 31.7398C36.4378 32.2779 37.0527 32.5617 37.6795 32.5617C38.0934 32.5676 38.5191 32.4376 38.8857 32.1655Z" fill="white"/>
<path d="M6.525 40.9756V22.7878V21.2387V3.44122C6.525 2.79082 5.99285 2.25867 5.34245 2.25867C4.69204 2.25867 4.15989 2.79082 4.15989 3.44122V40.8396C4.45553 40.7804 4.76299 40.7509 5.06455 40.7509C5.56116 40.7509 6.05789 40.8277 6.525 40.9756Z" fill="white"/>
<path d="M13.9633 54.5514C12.0121 53.5758 10.4215 51.6777 10.4215 49.1293C10.4215 46.5809 8.9256 45.4752 8.33432 45.1382C7.61887 44.8603 6.78517 44.6652 5.88642 44.5883C5.62035 44.5647 5.34245 44.5528 5.06455 44.5528C4.94629 44.5528 4.82212 44.5528 4.70387 44.5588C3.41488 44.6061 2.22641 44.8957 1.30401 45.351C-0.0914046 46.2793 0.032764 48.2719 0.032764 48.2719C0.032764 54.5926 4.78073 55.9999 9.00838 55.9999C10.8709 55.9999 12.6329 55.7279 13.8391 55.4796C14.3062 55.3909 14.389 54.7642 13.9633 54.5514Z" fill="white"/>
<path d="M3.93514 43.3702C4.17757 43.3466 4.42591 43.3288 4.67424 43.3229C4.80432 43.317 4.9344 43.317 5.06449 43.317C5.37195 43.317 5.6735 43.3288 5.96914 43.3525C6.21748 43.3702 6.46582 43.3998 6.70824 43.4353C6.91519 43.4648 7.11622 43.5003 7.31726 43.5417C7.47099 43.5772 7.62472 43.6127 7.77846 43.6481C7.69568 43.4707 7.60698 43.3052 7.50647 43.1574C7.37047 42.9563 7.22265 42.779 7.06892 42.637C6.95067 42.5306 6.8265 42.4419 6.69642 42.3769C6.6432 42.3473 6.58407 42.3237 6.53086 42.3C6.06966 42.099 5.57299 41.9926 5.0704 41.9926C4.76293 41.9926 4.46138 42.0339 4.16574 42.1108C3.97653 42.1581 3.78732 42.2232 3.60403 42.3059C3.55081 42.3296 3.4976 42.3532 3.44438 42.3769C3.3143 42.4419 3.18422 42.5365 3.06005 42.6489C2.78806 42.8972 2.54564 43.2461 2.36234 43.6481C2.66981 43.5713 2.9891 43.5003 3.32021 43.4471C3.52125 43.4175 3.72234 43.388 3.93514 43.3702Z" fill="white"/>
</svg>
