<svg width="58" height="58" viewBox="0 0 58 58" fill="none" xmlns="http://www.w3.org/2000/svg">
<g clip-path="url(#clip0_17_123)">
<path d="M41.6474 27.3239V6H17.3391V17.771H-1V58.0006H17.3391V58.0288H57V27.3231H41.6474V27.3239ZM11.0895 56.2954V46.6217H6.9561V56.2954H0.706368V19.4765H17.3391V56.2954H11.0895ZM55.2939 56.3233H33.6859V39.1225H26.2937V56.3233H19.0444V17.771V7.70648H39.9408V29.0303H55.2939V56.3233ZM21.255 11.8281H24.8095V19.7331H21.255V11.8281ZM28.0657 11.8281H31.6189V19.7331H28.0657V11.8281ZM34.6171 11.8281H38.1718V19.7331H34.6171V11.8281ZM21.255 23.9677H24.8095V32.7258H21.255V23.9677ZM28.0657 23.9677H31.6189V32.7258H28.0657V23.9677ZM34.6171 23.9677H38.1718V32.7258H34.6171V23.9677ZM44.497 40.9856H40.9437V32.8673H44.497V40.9856ZM44.497 53.978H40.9437V45.6469H44.497V53.978ZM51.9593 40.9856H48.4061V32.8673H51.9593V40.9856ZM51.9593 53.978H48.4061V45.6469H51.9593V53.978ZM3.51423 22.3125H7.06753V30.4302H3.51423V22.3125ZM3.51423 35.091H7.06753V43.422H3.51423V35.091ZM10.9769 22.3125H14.5301V30.4302H10.9769V22.3125ZM10.9769 35.091H14.5301V43.422H10.9769V35.091Z" fill="white"/>
</g>
<defs>
<clipPath id="clip0_17_123">
<rect width="58" height="58" fill="white"/>
</clipPath>
</defs>
</svg>
