<svg width="68" height="63" viewBox="0 0 68 63" fill="none" xmlns="http://www.w3.org/2000/svg">
<g filter="url(#filter0_d_18_141)">
<path d="M62.5724 51.2161H59.6605V7.35624C59.6605 6.56765 59.0213 5.9286 58.2331 5.9286H36.1371C35.3487 5.9286 34.7094 6.56784 34.7094 7.35624V51.2161H33.237V22.7854C33.237 21.9968 32.5978 21.3578 31.8094 21.3578H9.71354C8.92494 21.3578 8.2859 21.997 8.2859 22.7854V40.864C8.2859 40.8658 8.2859 40.8674 8.2859 40.8692V51.2161H5.42764C4.63924 51.2161 4 51.8552 4 52.6438C4 53.4323 4.63924 54.0714 5.42764 54.0714H62.5726C63.3608 54.0714 64 53.4323 64 52.6438C64 51.8552 63.3608 51.2161 62.5724 51.2161ZM30.3819 51.2161H24.4011L26.6361 48.9816C27.1937 48.424 27.1937 47.5203 26.6361 46.9627C26.0787 46.4053 25.1748 46.4053 24.6172 46.9627L20.3636 51.2163H12.9914L17.0341 47.1736C17.5917 46.616 17.5917 45.7123 17.0341 45.1547C16.4765 44.5971 15.5728 44.5971 15.0153 45.1547L11.141 49.029V41.458L15.2038 37.3952C15.7614 36.8376 15.7614 35.9339 15.2038 35.3763C14.6462 34.8187 13.7425 34.8187 13.185 35.3763L11.141 37.4203V24.2131H30.3819V51.2161ZM56.8055 51.2161H37.5645V8.78388H56.8055V51.2161Z" fill="white"/>
<path d="M14.8565 29.594H18.1899C18.9783 29.594 19.6176 28.955 19.6176 28.1664C19.6176 27.3778 18.9783 26.7388 18.1901 26.7388H14.8565C14.0681 26.7388 13.4289 27.3778 13.4289 28.1664C13.4289 28.955 14.0681 29.594 14.8565 29.594Z" fill="white"/>
<path d="M49.8519 15.4983H53.1855C53.9739 15.4983 54.6131 14.8593 54.6131 14.0707C54.6131 13.2821 53.9739 12.643 53.1855 12.643H49.8519C49.0635 12.643 48.4244 13.2821 48.4244 14.0707C48.4244 14.8593 49.0635 15.4983 49.8519 15.4983Z" fill="white"/>
<path d="M49.8519 22.5463H53.1855C53.9739 22.5463 54.6131 21.9072 54.6131 21.1188C54.6131 20.3302 53.9739 19.6912 53.1855 19.6912H49.8519C49.0635 19.6912 48.4244 20.3302 48.4244 21.1188C48.4242 21.9072 49.0635 22.5463 49.8519 22.5463Z" fill="white"/>
<path d="M23.5235 29.594H26.8572C27.6455 29.594 28.2848 28.955 28.2848 28.1664C28.2848 27.3778 27.6455 26.7388 26.8572 26.7388H23.5235C22.7351 26.7388 22.0961 27.3778 22.0961 28.1664C22.0961 28.955 22.7351 29.594 23.5235 29.594Z" fill="white"/>
<path d="M23.5235 36.642H26.8572C27.6455 36.642 28.2848 36.003 28.2848 35.2144C28.2848 34.426 27.6455 33.787 26.8572 33.787H23.5235C22.7351 33.787 22.0961 34.426 22.0961 35.2144C22.0959 36.003 22.7351 36.642 23.5235 36.642Z" fill="white"/>
<path d="M23.5235 43.6898H26.8572C27.6455 43.6898 28.2848 43.0508 28.2848 42.2624C28.2848 41.4738 27.6455 40.8347 26.8572 40.8347H23.5235C22.7351 40.8347 22.0961 41.4738 22.0961 42.2624C22.0959 43.0508 22.7351 43.6898 23.5235 43.6898Z" fill="white"/>
<path d="M49.8519 29.594H53.1855C53.9739 29.594 54.6131 28.955 54.6131 28.1664C54.6131 27.3778 53.9739 26.7388 53.1855 26.7388H49.8519C49.0635 26.7388 48.4244 27.3778 48.4244 28.1664C48.4244 28.955 49.0635 29.594 49.8519 29.594Z" fill="white"/>
<path d="M41.1849 36.642H44.5183C45.3067 36.642 45.9459 36.003 45.9459 35.2144C45.9459 34.426 45.3067 33.787 44.5183 33.787H41.1849C40.3965 33.787 39.7573 34.426 39.7573 35.2144C39.7573 36.003 40.3965 36.642 41.1849 36.642Z" fill="white"/>
<path d="M41.1849 29.594H44.5183C45.3067 29.594 45.9459 28.955 45.9459 28.1664C45.9459 27.3778 45.3067 26.7388 44.5183 26.7388H41.1849C40.3965 26.7388 39.7573 27.3778 39.7573 28.1664C39.7573 28.955 40.3965 29.594 41.1849 29.594Z" fill="white"/>
<path d="M41.1849 43.6898H44.5183C45.3067 43.6898 45.9459 43.0508 45.9459 42.2624C45.9459 41.4738 45.3067 40.8347 44.5183 40.8347H41.1849C40.3965 40.8347 39.7573 41.4738 39.7573 42.2624C39.7573 43.0508 40.3965 43.6898 41.1849 43.6898Z" fill="white"/>
<path d="M49.8519 43.6898H53.1855C53.9739 43.6898 54.6131 43.0508 54.6131 42.2624C54.6131 41.4738 53.9739 40.8347 53.1855 40.8347H49.8519C49.0635 40.8347 48.4244 41.4738 48.4244 42.2624C48.4242 43.0508 49.0635 43.6898 49.8519 43.6898Z" fill="white"/>
<path d="M49.8519 36.642H53.1855C53.9739 36.642 54.6131 36.003 54.6131 35.2144C54.6131 34.426 53.9739 33.787 53.1855 33.787H49.8519C49.0635 33.787 48.4244 34.426 48.4244 35.2144C48.4242 36.003 49.0635 36.642 49.8519 36.642Z" fill="white"/>
<path d="M41.1849 15.4983H44.5183C45.3067 15.4983 45.9459 14.8593 45.9459 14.0707C45.9459 13.2821 45.3067 12.643 44.5183 12.643H41.1849C40.3965 12.643 39.7573 13.2821 39.7573 14.0707C39.7573 14.8593 40.3965 15.4983 41.1849 15.4983Z" fill="white"/>
<path d="M41.1849 22.5463H44.5183C45.3067 22.5463 45.9459 21.9072 45.9459 21.1188C45.9459 20.3302 45.3067 19.6912 44.5183 19.6912H41.1849C40.3965 19.6912 39.7573 20.3302 39.7573 21.1188C39.7573 21.9072 40.3965 22.5463 41.1849 22.5463Z" fill="white"/>
</g>
<defs>
<filter id="filter0_d_18_141" x="0" y="0" width="68" height="68" filterUnits="userSpaceOnUse" color-interpolation-filters="sRGB">
<feFlood flood-opacity="0" result="BackgroundImageFix"/>
<feColorMatrix in="SourceAlpha" type="matrix" values="0 0 0 0 0 0 0 0 0 0 0 0 0 0 0 0 0 0 127 0" result="hardAlpha"/>
<feOffset dy="4"/>
<feGaussianBlur stdDeviation="2"/>
<feComposite in2="hardAlpha" operator="out"/>
<feColorMatrix type="matrix" values="0 0 0 0 0 0 0 0 0 0 0 0 0 0 0 0 0 0 0.25 0"/>
<feBlend mode="normal" in2="BackgroundImageFix" result="effect1_dropShadow_18_141"/>
<feBlend mode="normal" in="SourceGraphic" in2="effect1_dropShadow_18_141" result="shape"/>
</filter>
</defs>
</svg>
