<svg width="40" height="40" viewBox="0 0 40 40" fill="none" xmlns="http://www.w3.org/2000/svg">
<path d="M36.6666 28.2V33.2C36.6685 33.6641 36.5734 34.1236 36.3875 34.5489C36.2015 34.9742 35.9288 35.3559 35.5868 35.6697C35.2447 35.9835 34.8409 36.2224 34.4012 36.3711C33.9615 36.5198 33.4956 36.5751 33.0333 36.5333C27.9047 35.976 22.9783 34.2235 18.65 31.4166C14.623 28.8577 11.2089 25.4436 8.64997 21.4166C5.83327 17.0686 4.08037 12.1183 3.5333 6.96662C3.49165 6.50574 3.54643 6.04123 3.69414 5.60267C3.84185 5.16411 4.07925 4.76111 4.39125 4.41933C4.70324 4.07755 5.08298 3.80447 5.50629 3.61749C5.9296 3.43052 6.3872 3.33373 6.84997 3.33329H11.85C12.6588 3.32533 13.443 3.61176 14.0562 4.13918C14.6695 4.6666 15.0701 5.39904 15.1833 6.19996C15.3943 7.80007 15.7857 9.37117 16.35 10.8833C16.5742 11.4798 16.6227 12.1281 16.4898 12.7514C16.3569 13.3747 16.0481 13.9468 15.6 14.4L13.4833 16.5166C15.8559 20.6892 19.3107 24.144 23.4833 26.5166L25.6 24.4C26.0531 23.9519 26.6252 23.643 27.2485 23.5101C27.8718 23.3772 28.5201 23.4257 29.1166 23.65C30.6288 24.2142 32.1999 24.6056 33.8 24.8166C34.6096 24.9308 35.349 25.3386 35.8775 25.9624C36.4061 26.5863 36.6869 27.3826 36.6666 28.2Z" stroke="white" stroke-width="3.33333" stroke-linecap="round" stroke-linejoin="round"/>
</svg>
